<svg width="800" height="600" viewBox="0 0 800 600" xmlns="http://www.w3.org/2000/svg">
  <defs>
    <linearGradient id="bgGradient" x1="0%" y1="0%" x2="100%" y2="100%">
      <stop offset="0%" style="stop-color:#667eea;stop-opacity:1" />
      <stop offset="100%" style="stop-color:#764ba2;stop-opacity:1" />
    </linearGradient>
    <filter id="shadow" x="-20%" y="-20%" width="140%" height="140%">
      <feDropShadow dx="2" dy="4" stdDeviation="3" flood-color="#000000" flood-opacity="0.3"/>
    </filter>
  </defs>
  
  <!-- 背景 -->
  <rect width="800" height="600" fill="url(#bgGradient)"/>
  
  <!-- 标题 -->
  <text x="400" y="50" text-anchor="middle" font-family="Arial, sans-serif" font-size="32" font-weight="bold" fill="white">
    个人博客系统
  </text>
  
  <!-- 主要内容区域 -->
  <rect x="50" y="80" width="700" height="480" rx="10" fill="white" filter="url(#shadow)"/>
  
  <!-- 导航栏 -->
  <rect x="50" y="80" width="700" height="60" rx="10" fill="#f8f9fa"/>
  <text x="80" y="115" font-family="Arial, sans-serif" font-size="18" font-weight="bold" fill="#333">
    我的博客
  </text>
  
  <!-- 导航菜单 -->
  <circle cx="200" cy="110" r="8" fill="#667eea"/>
  <text x="220" y="115" font-family="Arial, sans-serif" font-size="14" fill="#333">首页</text>
  
  <circle cx="280" cy="110" r="8" fill="#ddd"/>
  <text x="300" y="115" font-family="Arial, sans-serif" font-size="14" fill="#666">文章</text>
  
  <circle cx="360" cy="110" r="8" fill="#ddd"/>
  <text x="380" y="115" font-family="Arial, sans-serif" font-size="14" fill="#666">分类</text>
  
  <circle cx="440" cy="110" r="8" fill="#ddd"/>
  <text x="460" y="115" font-family="Arial, sans-serif" font-size="14" fill="#666">关于</text>
  
  <!-- 文章列表 -->
  <rect x="70" y="160" width="300" height="80" rx="8" fill="#f8f9fa" stroke="#e9ecef" stroke-width="1"/>
  <text x="90" y="185" font-family="Arial, sans-serif" font-size="16" font-weight="bold" fill="#333">
    算法优化实践
  </text>
  <text x="90" y="205" font-family="Arial, sans-serif" font-size="12" fill="#666">
    探讨动态规划算法在实际项目中的应用...
  </text>
  <text x="90" y="225" font-family="Arial, sans-serif" font-size="10" fill="#999">
    2024-01-15 • 阅读 1.2k
  </text>
  
  <rect x="70" y="260" width="300" height="80" rx="8" fill="#f8f9fa" stroke="#e9ecef" stroke-width="1"/>
  <text x="90" y="285" font-family="Arial, sans-serif" font-size="16" font-weight="bold" fill="#333">
    React 性能优化指南
  </text>
  <text x="90" y="305" font-family="Arial, sans-serif" font-size="12" fill="#666">
    分享前端开发中的性能优化技巧...
  </text>
  <text x="90" y="325" font-family="Arial, sans-serif" font-size="10" fill="#999">
    2024-01-10 • 阅读 856
  </text>
  
  <rect x="70" y="360" width="300" height="80" rx="8" fill="#f8f9fa" stroke="#e9ecef" stroke-width="1"/>
  <text x="90" y="385" font-family="Arial, sans-serif" font-size="16" font-weight="bold" fill="#333">
    TypeScript 最佳实践
  </text>
  <text x="90" y="405" font-family="Arial, sans-serif" font-size="12" fill="#666">
    总结 TypeScript 开发中的经验...
  </text>
  <text x="90" y="425" font-family="Arial, sans-serif" font-size="10" fill="#999">
    2024-01-05 • 阅读 1.5k
  </text>
  
  <!-- 侧边栏 -->
  <rect x="400" y="160" width="320" height="280" rx="8" fill="#f8f9fa" stroke="#e9ecef" stroke-width="1"/>
  
  <!-- 搜索框 -->
  <rect x="420" y="180" width="280" height="40" rx="20" fill="white" stroke="#ddd" stroke-width="1"/>
  <text x="440" y="205" font-family="Arial, sans-serif" font-size="14" fill="#999">
    搜索文章...
  </text>
  
  <!-- 分类标签 -->
  <text x="420" y="250" font-family="Arial, sans-serif" font-size="16" font-weight="bold" fill="#333">
    分类
  </text>
  
  <rect x="420" y="270" width="80" height="30" rx="15" fill="#667eea"/>
  <text x="460" y="290" text-anchor="middle" font-family="Arial, sans-serif" font-size="12" fill="white">算法</text>
  
  <rect x="510" y="270" width="80" height="30" rx="15" fill="#e9ecef"/>
  <text x="550" y="290" text-anchor="middle" font-family="Arial, sans-serif" font-size="12" fill="#666">前端</text>
  
  <rect x="600" y="270" width="80" height="30" rx="15" fill="#e9ecef"/>
  <text x="640" y="290" text-anchor="middle" font-family="Arial, sans-serif" font-size="12" fill="#666">后端</text>
  
  <rect x="420" y="310" width="80" height="30" rx="15" fill="#e9ecef"/>
  <text x="460" y="330" text-anchor="middle" font-family="Arial, sans-serif" font-size="12" fill="#666">工具</text>
  
  <!-- 热门文章 -->
  <text x="420" y="370" font-family="Arial, sans-serif" font-size="16" font-weight="bold" fill="#333">
    热门文章
  </text>
  
  <text x="420" y="395" font-family="Arial, sans-serif" font-size="12" fill="#333">1. 算法优化实践</text>
  <text x="420" y="415" font-family="Arial, sans-serif" font-size="12" fill="#333">2. TypeScript 最佳实践</text>
  <text x="420" y="435" font-family="Arial, sans-serif" font-size="12" fill="#333">3. React 性能优化指南</text>
  
  <!-- 功能图标 -->
  <circle cx="650" cy="110" r="15" fill="#667eea"/>
  <text x="650" y="115" text-anchor="middle" font-family="Arial, sans-serif" font-size="12" fill="white">+</text>
  
  <!-- 主题切换 -->
  <circle cx="720" cy="110" r="15" fill="#f8f9fa" stroke="#ddd" stroke-width="1"/>
  <text x="720" y="115" text-anchor="middle" font-family="Arial, sans-serif" font-size="12" fill="#666">🌙</text>
</svg>
